<svg width="11" height="11" viewBox="0 0 11 11" fill="none" xmlns="http://www.w3.org/2000/svg">
<path d="M9.38444 0.849609H1.05111C0.830093 0.849609 0.618131 0.937407 0.461851 1.09369C0.305571 1.24997 0.217773 1.46193 0.217773 1.68294V10.0163C0.217773 10.2373 0.305571 10.4493 0.461851 10.6055C0.618131 10.7618 0.830093 10.8496 1.05111 10.8496H9.38444C9.60545 10.8496 9.81742 10.7618 9.9737 10.6055C10.13 10.4493 10.2178 10.2373 10.2178 10.0163V1.68294C10.2178 1.46193 10.13 1.24997 9.9737 1.09369C9.81742 0.937407 9.60545 0.849609 9.38444 0.849609ZM7.7959 4.90169L4.74381 7.81836C4.66491 7.89258 4.56048 7.93361 4.45215 7.93294C4.34542 7.93335 4.2427 7.89226 4.16569 7.81836L2.63965 6.36003C2.59732 6.3231 2.5629 6.27799 2.53845 6.22742C2.514 6.17685 2.50003 6.12186 2.49737 6.06575C2.49472 6.00964 2.50343 5.95357 2.523 5.90092C2.54257 5.84826 2.57258 5.80011 2.61123 5.75935C2.64988 5.71859 2.69637 5.68607 2.74792 5.66374C2.79946 5.6414 2.85498 5.62972 2.91115 5.6294C2.96732 5.62907 3.02298 5.64011 3.07478 5.66184C3.12657 5.68357 3.17344 5.71555 3.21256 5.75586L4.45215 6.93815L7.22298 4.29753C7.304 4.22684 7.4092 4.19021 7.5166 4.19529C7.62399 4.20038 7.72527 4.24677 7.79925 4.32479C7.87323 4.40281 7.91419 4.5064 7.91357 4.61392C7.91294 4.72143 7.87078 4.82454 7.7959 4.90169Z" fill="#AEB9E1"/>
</svg>
