<svg width="37" height="37" viewBox="0 0 37 37" fill="none" xmlns="http://www.w3.org/2000/svg">
<path opacity="0.5" d="M0.490234 18.7946C0.490234 8.78947 8.601 0.678711 18.6061 0.678711C28.6113 0.678711 36.722 8.78947 36.722 18.7946C36.722 28.7997 28.6113 36.9105 18.6061 36.9105C8.601 36.9105 0.490234 28.7997 0.490234 18.7946Z" fill="#0B1739"/>
<path opacity="0.2" d="M0.490234 18.7946C0.490234 8.78947 8.601 0.678711 18.6061 0.678711C28.6113 0.678711 36.722 8.78947 36.722 18.7946C36.722 28.7997 28.6113 36.9105 18.6061 36.9105C8.601 36.9105 0.490234 28.7997 0.490234 18.7946Z" fill="#CB3CFF"/>
<path opacity="0.4" d="M8.74023 18.7946C8.74023 13.3458 13.1573 8.92871 18.6061 8.92871C24.0549 8.92871 28.472 13.3458 28.472 18.7946C28.472 24.2434 24.0549 28.6605 18.6061 28.6605C13.1573 28.6605 8.74023 24.2434 8.74023 18.7946Z" fill="#CB3CFF"/>
<rect x="14.1953" y="14.3838" width="8.82098" height="8.82098" rx="4.41049" fill="#9A91FB"/>
</svg>
