<svg width="37" height="38" viewBox="0 0 37 38" fill="none" xmlns="http://www.w3.org/2000/svg">
<path opacity="0.5" d="M0.595703 18.9177C0.595703 8.91252 8.70646 0.801758 18.7116 0.801758C28.7167 0.801758 36.8275 8.91252 36.8275 18.9177C36.8275 28.9228 28.7167 37.0336 18.7116 37.0336C8.70646 37.0336 0.595703 28.9228 0.595703 18.9177Z" fill="#0B1739"/>
<path opacity="0.2" d="M0.595703 18.9177C0.595703 8.91252 8.70646 0.801758 18.7116 0.801758C28.7167 0.801758 36.8275 8.91252 36.8275 18.9177C36.8275 28.9228 28.7167 37.0336 18.7116 37.0336C8.70646 37.0336 0.595703 28.9228 0.595703 18.9177Z" fill="#CB3CFF"/>
<path opacity="0.4" d="M8.8457 18.9177C8.8457 13.4689 13.2628 9.05176 18.7116 9.05176C24.1604 9.05176 28.5775 13.4689 28.5775 18.9177C28.5775 24.3664 24.1604 28.7836 18.7116 28.7836C13.2628 28.7836 8.8457 24.3664 8.8457 18.9177Z" fill="#CB3CFF"/>
<rect x="14.3008" y="14.5068" width="8.82098" height="8.82098" rx="4.41049" fill="#9A91FB"/>
</svg>
