<svg width="37" height="37" viewBox="0 0 37 37" fill="none" xmlns="http://www.w3.org/2000/svg">
<path opacity="0.5" d="M0.729492 18.4987C0.729492 8.49357 8.84025 0.382812 18.8454 0.382812C28.8505 0.382812 36.9613 8.49357 36.9613 18.4987C36.9613 28.5038 28.8505 36.6146 18.8454 36.6146C8.84025 36.6146 0.729492 28.5038 0.729492 18.4987Z" fill="#0B1739"/>
<path opacity="0.2" d="M0.729492 18.4987C0.729492 8.49357 8.84025 0.382812 18.8454 0.382812C28.8505 0.382812 36.9613 8.49357 36.9613 18.4987C36.9613 28.5038 28.8505 36.6146 18.8454 36.6146C8.84025 36.6146 0.729492 28.5038 0.729492 18.4987Z" fill="#CB3CFF"/>
<path opacity="0.4" d="M8.97949 18.4987C8.97949 13.0499 13.3966 8.63281 18.8454 8.63281C24.2942 8.63281 28.7113 13.0499 28.7113 18.4987C28.7113 23.9475 24.2942 28.3646 18.8454 28.3646C13.3966 28.3646 8.97949 23.9475 8.97949 18.4987Z" fill="#CB3CFF"/>
<rect x="14.4346" y="14.0879" width="8.82098" height="8.82098" rx="4.41049" fill="#9A91FB"/>
</svg>
