<svg width="251" height="251" viewBox="0 0 251 251" fill="none" xmlns="http://www.w3.org/2000/svg">
<path d="M125.367 1.00215C125.367 0.560321 125.725 0.201882 126.167 0.204704C142.341 0.308032 158.344 3.54349 173.292 9.73498C188.486 16.0285 202.292 25.2532 213.921 36.8822C225.55 48.5112 234.774 62.3168 241.068 77.5108C247.259 92.4584 250.495 108.462 250.598 124.635C250.601 125.077 250.242 125.436 249.801 125.436H238.877C238.435 125.436 238.078 125.077 238.074 124.635C237.971 110.106 235.06 95.7315 229.498 82.3033C223.833 68.6287 215.531 56.2036 205.065 45.7375C194.599 35.2714 182.174 26.9692 168.499 21.305C155.071 15.7429 140.696 12.8315 126.167 12.7283C125.725 12.7252 125.367 12.3673 125.367 11.9255V1.00215Z" fill="#0B1739"/>
<path d="M157.573 5.24211C157.687 4.81534 158.126 4.5619 158.552 4.67898C180.964 10.838 201.226 23.1145 217.063 40.1408C232.901 57.167 243.682 78.2624 248.206 101.061C248.292 101.494 248.007 101.914 247.573 101.997L236.845 104.055C236.411 104.138 235.992 103.853 235.906 103.42C231.826 82.9313 222.129 63.9743 207.894 48.6703C193.658 33.3662 175.451 22.3259 155.311 16.7759C154.885 16.6585 154.631 16.22 154.746 15.7933L157.573 5.24211Z" fill="#00C2FF"/>
<path d="M157.573 5.24211C157.687 4.81534 158.127 4.56201 158.553 4.67909C190.044 13.333 216.91 33.9483 233.42 62.1266C233.643 62.5078 233.512 62.9979 233.13 63.2188L223.67 68.6805C223.287 68.9014 222.798 68.7695 222.574 68.3885C207.726 43.0863 183.594 24.5699 155.311 16.776C154.885 16.6586 154.631 16.22 154.746 15.7933L157.573 5.24211Z" fill="#0038FF"/>
<path d="M0.933789 125.436C0.491961 125.436 0.133522 125.077 0.136345 124.635C0.257318 105.7 4.67072 87.0352 13.0488 70.0462C21.5448 52.818 33.8902 37.7751 49.1299 26.0812C64.3697 14.3874 82.0952 6.35601 100.935 2.60847C119.514 -1.08702 138.685 -0.519189 157.006 4.26474C157.434 4.37636 157.687 4.81534 157.573 5.24211L154.746 15.7933C154.631 16.22 154.193 16.473 153.765 16.3616C137.299 12.0747 120.073 11.5704 103.379 14.8912C86.4224 18.264 70.4694 25.4922 56.7537 36.0166C43.0379 46.5411 31.927 60.0797 24.2806 75.5852C16.7522 90.8513 12.7808 107.621 12.66 124.635C12.6568 125.077 12.299 125.436 11.8571 125.436H0.933789Z" fill="#CB3CFF"/>
</svg>
