<svg width="298" height="65" viewBox="0 0 298 65" fill="none" xmlns="http://www.w3.org/2000/svg">
<path d="M1.5575 64.2471L21.3051 57.9087C21.5064 57.8441 21.682 57.7174 21.8067 57.5468L33.8129 41.1257C34.1399 40.6784 34.7683 40.5823 35.2141 40.9114L53.7581 54.6012C54.2141 54.9378 54.8585 54.8285 55.178 54.3603L68.4004 34.9844C68.7115 34.5285 69.3332 34.4109 69.7893 34.7216L88.3148 47.3388C88.4151 47.4071 88.527 47.4566 88.645 47.4849L120.524 55.1105C120.808 55.1784 121.107 55.1188 121.344 54.9473L147.142 36.2306C147.257 36.1465 147.354 36.0386 147.424 35.9141L166.625 2.0177C167.01 1.33812 167.991 1.34243 168.37 2.02537L199.039 57.2945C199.216 57.6122 199.55 57.8093 199.914 57.8093H234.507C234.765 57.8093 235.013 57.7095 235.2 57.5307L258.76 34.9118C259.183 34.5067 259.861 34.5488 260.229 35.003L276.487 55.0321C276.586 55.154 276.713 55.2509 276.856 55.3149L296.852 64.2471" stroke="#CB3CFF" stroke-width="1.2" stroke-linecap="round"/>
</svg>
