<svg width="38" height="37" viewBox="0 0 38 37" fill="none" xmlns="http://www.w3.org/2000/svg">
<path opacity="0.5" d="M0.806641 18.8718C0.806641 8.86662 8.9174 0.755859 18.9225 0.755859C28.9277 0.755859 37.0384 8.86662 37.0384 18.8718C37.0384 28.8769 28.9277 36.9877 18.9225 36.9877C8.9174 36.9877 0.806641 28.8769 0.806641 18.8718Z" fill="#0B1739"/>
<path opacity="0.2" d="M0.806641 18.8718C0.806641 8.86662 8.9174 0.755859 18.9225 0.755859C28.9277 0.755859 37.0384 8.86662 37.0384 18.8718C37.0384 28.8769 28.9277 36.9877 18.9225 36.9877C8.9174 36.9877 0.806641 28.8769 0.806641 18.8718Z" fill="#CB3CFF"/>
<path opacity="0.4" d="M9.05664 18.8718C9.05664 13.423 13.4738 9.00586 18.9225 9.00586C24.3713 9.00586 28.7884 13.423 28.7884 18.8718C28.7884 24.3205 24.3713 28.7377 18.9225 28.7377C13.4738 28.7377 9.05664 24.3205 9.05664 18.8718Z" fill="#CB3CFF"/>
<rect x="14.5117" y="14.4609" width="8.82098" height="8.82098" rx="4.41049" fill="#9A91FB"/>
</svg>
