<svg width="101" height="101" viewBox="0 0 101 101" fill="none" xmlns="http://www.w3.org/2000/svg">
<path d="M100.783 50.7656C100.783 78.4818 78.3148 100.95 50.5986 100.95C22.8825 100.95 0.414062 78.4818 0.414062 50.7656C0.414062 23.0495 22.8825 0.581055 50.5986 0.581055C78.3148 0.581055 100.783 23.0495 100.783 50.7656ZM6.93806 50.7656C6.93806 74.8787 26.4856 94.4262 50.5986 94.4262C74.7117 94.4262 94.2592 74.8787 94.2592 50.7656C94.2592 26.6526 74.7117 7.10505 50.5986 7.10505C26.4856 7.10505 6.93806 26.6526 6.93806 50.7656Z" fill="#0B1739"/>
<path d="M1.21406 50.7656C0.772236 50.7656 0.413397 50.4073 0.420438 49.9655C0.580616 39.9152 3.75552 30.1439 9.53334 21.9189C9.78731 21.5574 10.2882 21.4784 10.6457 21.7381L14.6293 24.6324C14.9867 24.892 15.0653 25.392 14.8122 25.7541C9.84312 32.8637 7.10425 41.2931 6.94538 49.9656C6.93729 50.4074 6.57988 50.7656 6.13806 50.7656H1.21406Z" fill="#00C2FF"/>
</svg>
