<svg width="13" height="13" viewBox="0 0 13 13" fill="none" xmlns="http://www.w3.org/2000/svg">
<path d="M12.2178 11.5531C12.2178 11.6756 12.1691 11.793 12.0826 11.8795C11.996 11.9661 11.8786 12.0147 11.7562 12.0147H0.679312C0.556904 12.0147 0.43951 11.9661 0.352955 11.8795C0.2664 11.793 0.217773 11.6756 0.217773 11.5531V2.32238C0.217773 2.19997 0.2664 2.08258 0.352955 1.99602C0.43951 1.90947 0.556904 1.86084 0.679312 1.86084C0.80172 1.86084 0.919114 1.90947 1.00567 1.99602C1.09222 2.08258 1.14085 2.19997 1.14085 2.32238V8.59353L4.04277 5.68584C4.13028 5.59917 4.24846 5.55055 4.37162 5.55055C4.49478 5.55055 4.61296 5.59917 4.70047 5.68584L6.21777 7.20892L9.02739 4.3993L8.19662 3.5743C8.13401 3.50757 8.09157 3.42447 8.07421 3.33463C8.05686 3.24478 8.06529 3.15186 8.09854 3.06661C8.13447 2.98305 8.19401 2.9118 8.26984 2.86159C8.34567 2.81137 8.43451 2.78438 8.52547 2.78392H10.8332C10.9556 2.78392 11.073 2.83254 11.1595 2.9191C11.2461 3.00565 11.2947 3.12305 11.2947 3.24546V5.55315C11.295 5.64427 11.2683 5.73343 11.218 5.80941C11.1677 5.88538 11.096 5.94476 11.012 5.98007C10.9551 6.00268 10.8944 6.01442 10.8332 6.01469C10.7106 6.01417 10.5929 5.96668 10.5043 5.88199L9.67931 5.05122L6.54662 8.18969C6.45911 8.27635 6.34093 8.32498 6.21777 8.32498C6.09461 8.32498 5.97643 8.27635 5.88893 8.18969L4.37162 6.66661L1.14085 9.89738V11.0916H11.7562C11.8786 11.0916 11.996 11.1402 12.0826 11.2268C12.1691 11.3133 12.2178 11.4307 12.2178 11.5531Z" fill="#AEB9E1"/>
</svg>
