<svg width="37" height="37" viewBox="0 0 37 37" fill="none" xmlns="http://www.w3.org/2000/svg">
<path opacity="0.5" d="M0.574219 18.4333C0.574219 8.42814 8.68498 0.317383 18.6901 0.317383C28.6953 0.317383 36.806 8.42814 36.806 18.4333C36.806 28.4384 28.6953 36.5492 18.6901 36.5492C8.68498 36.5492 0.574219 28.4384 0.574219 18.4333Z" fill="#0B1739"/>
<path opacity="0.2" d="M0.574219 18.4333C0.574219 8.42814 8.68498 0.317383 18.6901 0.317383C28.6953 0.317383 36.806 8.42814 36.806 18.4333C36.806 28.4384 28.6953 36.5492 18.6901 36.5492C8.68498 36.5492 0.574219 28.4384 0.574219 18.4333Z" fill="#00C2FF"/>
<path opacity="0.4" d="M8.82422 18.4333C8.82422 12.9845 13.2413 8.56738 18.6901 8.56738C24.1389 8.56738 28.556 12.9845 28.556 18.4333C28.556 23.8821 24.1389 28.2992 18.6901 28.2992C13.2413 28.2992 8.82422 23.8821 8.82422 18.4333Z" fill="#00C2FF"/>
<rect x="14.2793" y="14.0225" width="8.82098" height="8.82098" rx="4.41049" fill="#00C2FF"/>
</svg>
