<svg width="13" height="13" viewBox="0 0 13 13" fill="none" xmlns="http://www.w3.org/2000/svg">
<path d="M5.43321 1.53879H8.00466C8.11832 1.53879 8.22733 1.49364 8.30771 1.41326C8.38808 1.33289 8.43323 1.22388 8.43323 1.11022C8.43323 0.99655 8.38808 0.88754 8.30771 0.807167C8.22733 0.726794 8.11832 0.681641 8.00466 0.681641H5.43321C5.31955 0.681641 5.21054 0.726794 5.13017 0.807167C5.04979 0.88754 5.00464 0.99655 5.00464 1.11022C5.00464 1.22388 5.04979 1.33289 5.13017 1.41326C5.21054 1.49364 5.31955 1.53879 5.43321 1.53879Z" fill="#AEB9E1"/>
<path d="M6.71907 2.39575C5.7019 2.39575 4.70757 2.69738 3.86183 3.26249C3.01608 3.82759 2.35691 4.6308 1.96765 5.57054C1.5784 6.51029 1.47655 7.54435 1.67499 8.54197C1.87343 9.5396 2.36325 10.456 3.08249 11.1752C3.80174 11.8945 4.71812 12.3843 5.71574 12.5827C6.71336 12.7812 7.74743 12.6793 8.68717 12.2901C9.62691 11.9008 10.4301 11.2416 10.9952 10.3959C11.5603 9.55014 11.862 8.55581 11.862 7.53864C11.8591 6.17553 11.3164 4.86906 10.3525 3.9052C9.38865 2.94133 8.08218 2.39858 6.71907 2.39575ZM9.14587 5.72256L7.02443 7.844C6.94251 7.92321 6.83302 7.96749 6.71907 7.96749C6.60512 7.96749 6.49563 7.92321 6.41371 7.844C6.33323 7.76275 6.28808 7.65301 6.28808 7.53864C6.28808 7.42428 6.33323 7.31454 6.41371 7.23329L8.53515 5.11184C8.57358 5.06502 8.62138 5.02676 8.67548 4.99953C8.72959 4.9723 8.78879 4.9567 8.84929 4.95373C8.90979 4.95075 8.97024 4.96048 9.02675 4.98228C9.08326 5.00408 9.13458 5.03747 9.17741 5.0803C9.22024 5.12313 9.25363 5.17445 9.27543 5.23096C9.29723 5.28747 9.30696 5.34792 9.30399 5.40842C9.30101 5.46892 9.28541 5.52812 9.25818 5.58223C9.23095 5.63633 9.19269 5.68413 9.14587 5.72256Z" fill="#AEB9E1"/>
</svg>
