<svg width="37" height="37" viewBox="0 0 37 37" fill="none" xmlns="http://www.w3.org/2000/svg">
<path opacity="0.5" d="M0.0605469 18.1491C0.0605469 8.14396 8.17131 0.0332031 18.1764 0.0332031C28.1816 0.0332031 36.2923 8.14396 36.2923 18.1491C36.2923 28.1542 28.1816 36.265 18.1764 36.265C8.17131 36.265 0.0605469 28.1542 0.0605469 18.1491Z" fill="#0B1739"/>
<path opacity="0.2" d="M0.0605469 18.1491C0.0605469 8.14396 8.17131 0.0332031 18.1764 0.0332031C28.1816 0.0332031 36.2923 8.14396 36.2923 18.1491C36.2923 28.1542 28.1816 36.265 18.1764 36.265C8.17131 36.265 0.0605469 28.1542 0.0605469 18.1491Z" fill="#CB3CFF"/>
<path opacity="0.4" d="M8.31055 18.1491C8.31055 12.7003 12.7277 8.2832 18.1764 8.2832C23.6252 8.2832 28.0423 12.7003 28.0423 18.1491C28.0423 23.5979 23.6252 28.015 18.1764 28.015C12.7277 28.015 8.31055 23.5979 8.31055 18.1491Z" fill="#CB3CFF"/>
<rect x="13.7656" y="13.7383" width="8.82098" height="8.82098" rx="4.41049" fill="#9A91FB"/>
</svg>
